<?xml version="1.0" encoding="UTF-8" standalone="no"?>
<!-- Created with Inkscape (http://www.inkscape.org/) -->

<svg
   width="1366"
   height="497"
   viewBox="0 0 1366 497"
   version="1.1"
   id="svg1"
   xmlns="http://www.w3.org/2000/svg"
   xmlns:svg="http://www.w3.org/2000/svg">
  <defs
     id="defs1" />
  <g
     id="layer1">
    <path
       style="fill:#000000;stroke:#000000;stroke-width:0;stroke-dasharray:none"
       id="path24"
       d="m 34.321355,406.78065 c 0.379768,-1.71766 1.057632,-3.39572 1.139385,-5.15298 0.219975,-4.72745 -0.244626,-9.46312 -0.239377,-14.1957 0.02096,-19.69562 0.431382,-37.75574 2.025416,-57.60073 3.669187,-45.67848 5.295664,-48.24818 13.478376,-96.64236 11.022262,-47.84477 13.259146,-63.12807 28.823422,-109.20017 5.141701,-15.22012 10.507261,-30.418124 17.212809,-45.016913 7.127454,-15.5174 22.047004,-43.66013 38.386184,-54.22435 5.34988,-3.45903 12.43318,-2.78581 18.64977,-4.17871 -4.52627,-1.29611 -14.29612,-8.54152 -13.57875,-3.88834 2.13848,13.87128 13.84568,24.54508 18.78839,37.6811 6.90408,18.34865 11.90614,37.387209 16.61814,56.417053 15.45616,62.42108 23.31893,126.31572 31.6462,189.95281 2.38006,15.8393 4.76013,31.67861 7.14018,47.51794 2.66369,11.32418 6.00334,22.51039 7.99098,33.97258 1.05216,6.06747 0.73209,12.29429 1.09815,18.44143 l 1.48519,0.77953 v 0 c 10.94802,-32.1812 13.97159,-52.11606 8.24514,-87.93322 C 223.88088,250.02338 215.3773,186.13839 201.97558,123.33859 200.61504,116.96304 184.11695,41.068217 173.38468,29.789707 160.13975,15.870637 140.42314,10.035897 123.94235,0.15898672 117.82553,2.4013767 110.70611,2.8502667 105.59191,6.8861667 90.34045,18.921917 76.375663,48.132307 69.71917,63.968587 63.444815,78.895717 58.433688,94.334836 53.491149,109.75422 39.199282,154.3411 35.48399,173.27216 24.33101,219.11853 20.71084,236.69337 16.607254,254.1755 13.47055,271.843 c -4.2813575,24.11464 -7.1547995,50.97988 -9.445462,75.54867 -0.7163592,7.68347 -1.2129945,15.38588 -1.8335905,23.07769 -0.3666674,4.54475 -1.1307336,9.07243 -1.1281985,13.63193 0.00122,2.1387 0.7596138,4.2094 1.1394202,6.3141 z" />
    <path
       style="fill:#000000;stroke:#000000;stroke-width:0;stroke-dasharray:none"
       id="path25"
       d="m 38.09039,276.48156 c 52.387527,-15.09092 105.5098,-17.31076 159.61783,-21.61422 34.56379,-8.21044 18.96489,-3.21389 51.69618,-14.12975 l -17.43483,-3.04651 c -36.40535,-6.36138 -7.04491,-0.82243 -59.03634,-3.20095 -36.52142,2.90712 -72.992045,5.9197 -109.360941,10.414 -16.808516,2.0771 -31.112374,3.89437 -47.407162,7.41532 -3.289228,0.7107 -6.4882692,1.78846 -9.7323892,2.68268 z" />
    <path
       style="fill:#000000;stroke:#000000;stroke-width:0;stroke-dasharray:none"
       id="path26"
       d="m 443.62086,144.94533 c 5.06789,43.33393 7.8958,86.90528 10.64822,130.43628 0.85691,13.55226 0.43106,27.2296 2.37928,40.66843 1.73829,11.99056 5.75657,23.53813 8.63484,35.3072 8.54865,25.95641 5.82409,29.11536 7.64167,32.182 0,0 4.3086,-16.24265 7.53321,-24.55722 1.68165,-9.48675 4.73535,-18.83059 5.04498,-28.46027 0.43889,-13.65224 -1.96561,-27.24819 -2.81561,-40.881 -2.64865,-42.47915 -4.2461,-84.9819 -4.6925,-127.53938 z" />
    <path
       style="fill:#000000;stroke:#000000;stroke-width:0;stroke-dasharray:none"
       id="path27"
       d="m 460.57554,141.9578 c 20.31621,-12.38012 50.15282,-14.0048 73.21971,-12.22249 6.95007,0.53702 13.80478,1.94783 20.70715,2.92177 5.9183,1.75978 19.81516,11.0998 17.75488,5.27931 -2.40205,-6.78583 -12.11078,-9.64391 -19.30917,-9.67035 -3.78459,-0.0127 5.15432,5.93917 6.02775,9.62159 0.89996,3.79436 0.45941,8.03372 -0.98056,11.65772 -5.16306,12.99401 -15.14427,17.84139 -25.81028,26.04283 -16.81163,11.36619 -35.98163,18.07319 -54.08791,26.87931 -2.1618,1.05141 -15.18129,5.21269 -5.64077,11.43693 14.48409,9.44947 30.58103,16.15939 45.87152,24.2391 30.34833,10.60801 11.60935,3.27283 44.58022,18.55553 1.60211,0.74264 -6.07372,-3.53077 -4.73072,-2.38421 6.72249,5.73917 14.48839,10.22232 20.96174,16.24105 5.61089,5.21689 10.98519,10.86052 15.12227,17.30896 3.46622,5.40277 4.92737,11.85494 7.39104,17.78237 -0.52302,5.68795 0.86138,11.89473 -1.56899,17.06379 -2.9527,6.27998 -8.31742,11.32848 -13.78791,15.59818 -13.79183,10.76439 -35.88931,18.96192 -51.8703,24.5574 -9.17411,3.21215 -18.93317,4.76802 -27.85727,8.62066 -6.30807,2.72328 -11.64393,7.29733 -17.46589,10.94603 -5.73776,1.70094 -11.47551,3.4019 -17.21327,5.10284 l 0.64603,0.45945 v 0 c 8.54538,0.25328 17.09074,0.50648 25.6361,0.75969 11.51235,0.21892 23.08761,1.87843 34.53705,0.65684 15.28961,-1.63134 45.40512,-12.36477 59.14417,-18.73674 13.85345,-6.42501 33.08525,-15.9361 40.4908,-31.11756 2.76151,-5.66102 1.35976,-12.52373 2.0396,-18.78559 -2.49901,-6.36932 -3.91368,-13.27933 -7.49708,-19.10794 -7.78458,-12.66206 -24.46643,-27.25222 -36.56491,-34.98709 -32.02194,-20.47245 -65.12595,-39.0352 -101.09961,-51.40846 6.28166,4.50661 2.39422,7.71862 9.12296,11.52562 9.41824,5.32868 3.69673,2.60038 3.97252,0.65176 0.3773,-2.66586 4.27892,-3.29163 6.59873,-4.65824 4.25561,-2.50696 8.68262,-4.71391 13.09117,-6.94099 34.59865,-17.47839 4.39757,-1.04588 40.30506,-21.20468 13.05879,-9.57217 33.78505,-21.41859 30.8699,-41.47466 -0.61482,-4.22977 -2.37199,-8.87355 -5.78865,-11.44166 -33.04987,-24.84186 -33.25498,-23.15914 -61.63195,-30.52459 -6.94074,-0.82758 -13.84546,-2.05397 -20.82222,-2.48269 -25.40608,-1.56122 -54.68959,0.13631 -77.49439,12.42848 z" />
    <path
       style="fill:#000000;stroke:#000000;stroke-width:0;stroke-dasharray:none"
       id="path28"
       d="m 711.0562,221.20277 c -19.65914,29.97971 -35.32515,64.17614 -40.84177,99.89207 -0.98776,6.395 -0.77825,12.91825 -1.16738,19.37742 1.23455,4.81843 1.22274,10.14412 3.70368,14.45531 1.83416,3.1872 5.10781,5.7485 8.59484,6.91599 14.993,5.01981 30.27836,12.5231 46.04791,11.37903 6.83962,-0.49622 9.59611,-9.92181 13.31164,-15.68558 9.64547,-14.96243 15.10706,-32.18324 21.32515,-48.64639 7.64425,-20.76023 13.69607,-42.12215 16.51473,-64.00677 4.06837,-31.5876 -33.74098,-42.9254 -18.18143,-16.49605 12.62856,21.45079 20.75453,45.1936 33.69632,66.50489 3.98047,6.55465 8.41118,12.82507 12.61676,19.23761 5.66453,7.07384 16.51533,21.74276 24.34131,27.5774 11.70822,8.72902 27.12922,14.73264 40.27059,20.61296 l -5.22176,-4.11028 v 0 c 0.69847,0.57706 2.4926,2.54549 2.09548,1.73113 -5.39884,-11.07143 -25.84972,-19.57 -28.97982,-31.59451 -4.35388,-6.38613 -8.96507,-12.60426 -13.06168,-19.15843 -8.5738,-13.7172 -17.0586,-29.81048 -23.78381,-44.50987 -3.14228,-6.86812 -5.94803,-13.8877 -8.71461,-20.91562 -1.98484,-5.04209 -1.59435,-11.56593 -5.53573,-15.28446 -11.20694,-10.57332 -25.47939,-17.33098 -38.21911,-25.99648 -2.62056,6.11268 -2.52548,19.02621 -3.38267,25.36083 -2.9499,21.79979 -7.49319,43.36045 -14.82064,64.14908 -6.6355,17.08207 -11.05435,31.79141 -21.79908,46.86207 -3.71694,5.21336 -14.46647,7.52616 -13.33226,13.82762 1.78556,9.92022 15.16046,13.86653 19.91654,22.75355 3.7616,7.02883 -15.84704,-31.26287 -15.09662,-37.61042 4.17864,-35.34703 20.56251,-69.41643 42.7292,-96.83396 z" />
    <path
       style="fill:#000000;stroke:#000000;stroke-width:0;stroke-dasharray:none"
       id="path29"
       d="m 856.25495,207.96965 c -0.0687,2.23904 -0.47601,4.49333 -0.20607,6.71707 1.311,10.79709 5.55171,22.83104 8.48483,32.90502 6.00378,20.62013 11.90545,41.23538 18.34007,61.72629 1.69368,4.17987 2.817,8.63909 5.08099,12.53964 1.02723,1.76978 2.65088,3.39513 4.57398,4.09436 13.10479,4.7649 26.09249,12.20302 40.03644,12.12597 4.60219,-0.0262 4.1768,-8.20469 6.11049,-12.38102 13.88946,-29.99811 0.40278,-3.79919 17.09828,-34.83726 10.25402,-14.61309 11.14759,-17.74232 24.23265,-29.44308 3.97641,-3.55573 9.97905,-5.12903 12.72757,-9.70075 2.33311,-3.88105 0.82515,-9.01916 1.23782,-13.52873 l -7.16032,-4.71086 v 0 c -8.05591,-0.27136 -16.32851,-2.68981 -24.1677,-0.81415 -5.45571,1.30536 -9.45238,6.12518 -13.6382,9.8598 -11.66046,10.4035 -15.45615,17.56295 -24.39502,30.42937 -28.74037,50.99175 6.72307,-12.59547 -18.28671,34.20696 -1.93514,3.62132 -8.51063,7.24383 -6.20461,10.64103 5.79921,2.27058 23.9125,24.21398 15.46128,6.90326 -6.90818,-20.36961 -13.1377,-40.82842 -18.58959,-61.64366 -2.25814,-8.62163 -5.54624,-24.07843 -8.97372,-33.12981 -1.18255,-3.12283 -2.95823,-5.98755 -4.43739,-8.98134 z" />
    <path
       style="fill:#000000;stroke:#000000;stroke-width:0;stroke-dasharray:none"
       id="path30"
       d="m 1031.6009,228.38538 c 0.5394,4.3871 1.0191,8.78192 1.6183,13.16122 7.3631,53.81585 -1.9758,-18.3561 5.2309,38.90177 1.6471,13.08555 2.6345,26.31447 6.9456,38.83207 12.4242,5.8027 23.8231,14.73577 37.2725,17.40809 3.2797,0.65164 2.8487,-6.06243 3.9633,-9.21475 1.5652,-4.4252 2.5882,-9.02648 4.0637,-13.48231 3.4043,-10.28032 6.9071,-20.39342 12.6291,-29.68935 2.731,-4.43724 6.2813,-8.31493 9.4221,-12.47239 13.1105,-9.66794 11.9767,-10.54525 27.9566,-15.32936 5.3654,-1.60634 11.2083,-1.50487 16.4235,-3.54729 8.2992,-3.25024 11.4287,-8.39032 16.7751,-14.7132 l -0.6478,-0.4573 v 0 c -11.4565,-1.88407 -34.3254,-6.30653 -46.1855,-5.65776 -8.1907,0.44805 -25.5464,6.59941 -32.5751,10.68624 -4.8559,2.82355 -8.9113,6.84091 -13.367,10.26136 -3.2251,4.3618 -6.8396,8.46088 -9.6749,13.08545 -8.1548,13.30029 -12.1123,28.29928 -18.002,42.57629 -0.885,2.14506 -4.7507,4.60859 -3.0957,6.23514 8.595,8.44771 19.9917,13.46404 29.9876,20.19604 -1.261,-2.03959 -2.996,-3.85375 -3.7834,-6.11879 -2.7671,-7.96021 -4.934,-25.21687 -5.8651,-32.63734 -2.1561,-17.18143 -3.2639,-34.48094 -5.8052,-51.61549 z" />
    <path
       style="fill:#000000;stroke:#000000;stroke-width:0;stroke-dasharray:none"
       id="path31"
       d="m 1210.6612,221.18213 c 0.6388,1.57733 1.037,3.27495 1.9164,4.73196 9.4259,15.61976 21.7524,30.11615 33.9468,43.56869 4.8938,5.39859 9.5755,11.05757 15.1113,15.79552 6.0555,5.1829 13.0039,9.22135 19.5057,13.832 9.2398,4.16996 18.4795,8.33997 27.7191,12.50994 l -2.7016,-2.14859 v 0 -0.37355 c -14.891,-13.00497 -28.5564,-26.76134 -40.9265,-42.24559 -13.8727,-17.36549 -7.0696,-9.89147 -17.4366,-25.32736 -1.363,-2.02985 -2.9536,-3.89755 -4.4304,-5.84633 z" />
    <path
       style="fill:#000000;stroke:#000000;stroke-width:0;stroke-dasharray:none"
       id="path32"
       d="m 1329.9261,206.484 c -0.6396,3.33956 -1.3746,6.66228 -1.9189,10.0187 -3.3072,20.39039 -2.5639,22.36402 -6.9831,46.40868 -5.8661,31.91574 -11.72,57.99478 -22.1534,89.17965 -5.7626,17.22429 -12.9746,33.92943 -19.4617,50.89414 -28.5818,61.52155 -18.6686,30.33806 -31.0532,93.1228 l 0.6874,0.39509 v 0 c 46.4959,-43.64505 27.0792,-17.76013 56.4076,-79.00293 6.748,-16.91179 14.0697,-33.60591 20.2443,-50.73535 11.5694,-32.094 17.58,-55.25861 25.604,-87.69718 2.3416,-9.46654 4.3997,-19.00087 6.5998,-28.50128 1.1405,-5.36876 2.1486,-10.76733 3.4216,-16.10621 0.7521,-3.15434 1.7669,-6.24019 2.6504,-9.36028 z" />
  </g>
</svg>
