<?xml version="1.0" encoding="UTF-8" standalone="no"?>
<!-- Created with Inkscape (http://www.inkscape.org/) -->

<svg
   width="271mm"
   height="129mm"
   viewBox="0 0 271 129"
   version="1.1"
   id="svg1"
   xmlns="http://www.w3.org/2000/svg"
   xmlns:svg="http://www.w3.org/2000/svg">
  <defs
     id="defs1" />
  <g
     id="layer1">
    <path
       style="fill:#000000;stroke:#000000;stroke-width:2.1037"
       id="path1"
       d="m 16.027511,61.291199 c 10.948673,0.97037 21.980507,0.24819 32.949602,-0.0404 4.278298,-0.0902 8.585033,-0.14346 12.861254,-0.36321 1.440453,-0.0739 2.89517,-0.0605 4.31618,-0.30482 2.381643,-0.93746 1.268419,-0.70037 3.287506,-0.91793 0,0 -0.10602,-0.0776 -0.10602,-0.0776 v 0 c -1.680972,-0.38286 -5.110227,-1.189376 -6.427407,-1.319956 -1.612896,-0.15989 -3.241268,-0.0824 -4.862274,-0.0847 -4.554976,-0.006 -8.415056,0.13534 -13.005503,0.26046 -10.828315,0.24168 -21.657019,0.55451 -32.488703,0.35631 z" />
    <path
       style="fill:#000000;stroke:#000000;stroke-width:2.1037"
       id="path2"
       d="m 3.7881628,94.468949 c 3.6095012,-2.07489 5.3590802,-5.91111 6.8978942,-9.57613 1.710611,-4.07419 4.090438,-11.03299 5.472596,-14.94069 5.763283,-17.307109 12.494613,-34.292744 20.923176,-50.509047 1.340191,-1.99148 4.663641,-9.4697734 8.135593,-8.934349 0.424139,0.06541 0.779649,0.35487 1.169469,0.532305 -0.743614,-0.01439 -2.149162,-0.772631 -2.230847,-0.04304 -0.1874,1.673781 1.220293,3.148994 1.702239,4.764396 0.732453,2.455083 1.382015,4.936066 1.937633,7.435923 2.367113,10.650233 3.687368,21.508633 5.187005,32.298946 2.404174,12.970456 2.676032,26.415066 6.48582,39.113036 1.189241,2.488622 0.694815,1.370912 1.523371,3.335562 0,0 0.110177,0.0563 0.110177,0.0563 v 0 c 1.013806,-1.03662 0.584375,-0.37761 1.057869,-2.10601 C 61.726089,91.908669 60.992079,87.987299 60.334272,84.029589 58.840184,75.040449 57.392765,66.042389 56.115535,57.020413 54.663258,46.317768 53.48328,35.529199 51.423643,24.917103 51.28866,24.221593 49.251759,14.268665 48.086139,12.693905 46.770655,10.91667 44.684724,9.8465496 42.984017,8.4228732 c -0.416936,-0.102918 -0.821114,-0.31725 -1.250803,-0.308734 -3.66519,0.07263 -6.234246,7.3503648 -7.630818,9.6599808 -7.636719,16.599494 -14.250432,33.629882 -20.495482,50.781789 -3.277804,8.4918 -6.354369,17.26242 -11.5280542,24.85811 z" />
    <path
       style="fill:#000000;stroke:#000000;stroke-width:2.1037"
       id="path3"
       d="m 95.711865,3.090613 c 0.14782,0.9692959 0.36167,1.9309999 0.44346,2.9078792 0.71454,8.5356048 0.18106,17.2460788 -0.29878,25.7705358 -0.33479,5.947645 -1.35587,19.405728 -1.79502,25.346255 -1.0298,11.078416 -1.85581,22.157476 -2.29378,33.272816 0,0 0.10982,0.0571 0.10982,0.0571 v 0 c 0.38143,-1.57901 0.84321,-3.1412 1.14428,-4.73704 1.72098,-9.12235 2.07099,-18.42575 2.88387,-27.647486 0.28119,-3.31981 1.859075,-21.860343 2.111345,-25.190439 0.627945,-8.289209 1.543085,-17.186677 0.928965,-25.5204358 -0.0755,-1.024562 -0.3174,-2.0305193 -0.476105,-3.0457803 z" />
    <path
       style="fill:#000000;stroke:#000000;stroke-width:2.1037"
       id="path4"
       d="m 98.49818,11.479952 c -0.92512,0.226556 -1.582275,0.978875 -2.430415,1.346263 -0.35675,0.154535 -1.41215,0.188015 -0.80281,0.560872 1.3079,0.80031 2.732565,1.397792 4.09883,2.096684 4.545045,0.533965 9.138505,0.493828 13.646325,1.398581 4.61421,0.926104 5.57674,1.490974 9.95609,3.139409 1.51535,0.878355 3.17859,1.545715 4.54609,2.635096 0.21065,0.167804 -0.80288,0.219202 -0.67049,0.452261 0.71637,1.261135 1.99954,2.129263 2.81802,3.32836 1.32998,1.94843 2.64179,4.751323 2.60148,7.192469 -0.0214,1.295523 -0.57871,2.527661 -0.86807,3.791507 -0.79619,1.244141 -1.41695,2.616233 -2.38855,3.732408 -6.04582,6.94545 -17.42319,10.564743 -25.98799,13.267771 -4.64356,1.426 -3.627525,1.1379 -7.833275,2.34997 -0.78982,0.22762 -1.60062,0.39166 -2.37195,0.67438 -0.29962,0.10978 -1.06342,0.29326 -0.81742,0.49465 4.7755,3.909346 4.18322,3.472456 8.355875,3.775006 1.32912,0.12448 2.6634,0.20362 3.98736,0.37346 4.95235,0.63531 10.05782,1.6324 14.72038,3.4482 7.27663,2.83382 5.16818,2.24882 3.15404,1.76866 0.90238,0.9842 1.94156,1.86133 2.70713,2.95263 2.30133,3.28037 3.09598,7.19705 1.58823,10.98575 -1.57652,3.96146 -3.26569,4.9745 -6.29353,7.98336 -5.25941,3.80374 -11.12024,6.724102 -17.30789,8.750912 -1.9731,0.64629 -3.962445,1.30896 -6.017895,1.61652 -2.13847,0.319993 -4.32241,0.169413 -6.48361,0.254133 0,0 0.10069,0.0716 0.10069,0.0716 v 0 c 2.16144,-0.085 4.32267,-0.17552 6.48432,-0.255073 2.6667,-0.0981 5.349285,0.0199 8.000725,-0.27807 7.20238,-0.80928 13.88945,-3.19988 19.74798,-7.421492 3.1603,-3.05293 4.92296,-4.09855 6.64411,-8.13783 1.66835,-3.91534 0.96834,-7.95261 -1.34629,-11.4406 -0.75454,-1.13703 -1.79388,-2.0628 -2.69081,-3.09419 -4.53921,-2.78111 -7.77503,-5.23145 -12.55072,-7.01172 -6.04785,-2.25452 -12.54873,-3.06054 -18.917875,-3.849716 -0.88463,-0.12968 -2.98404,-1.20948 -2.65391,-0.38917 3.61054,8.971656 2.59865,3.216116 4.183625,2.488806 0.71124,-0.32638 1.475435,-0.52674 2.221205,-0.76656 2.580785,-0.829936 5.202515,-1.532866 7.768545,-2.409046 8.58925,-2.87362 20.17601,-6.592878 26.3377,-13.478126 1.02929,-1.150165 1.70151,-2.568862 2.55227,-3.853301 0.33258,-1.329299 0.95123,-2.619433 0.99777,-3.987881 0.0442,-1.300928 -0.3024,-2.606853 -0.73168,-3.837643 -2.71062,-7.771511 -10.74949,-11.455599 -17.50912,-15.206878 -1.60668,-0.572864 -3.18254,-1.238148 -4.82001,-1.718593 -5.86243,-1.720072 -11.9156,-1.874862 -17.969665,-2.147033 0.73767,0.530953 1.515335,1.011633 2.213005,1.592853 0.188485,0.157021 -0.50255,-0.130186 -0.67086,-0.308135 -0.16679,-0.176333 -0.31466,-0.441268 -0.26045,-0.676482 0.16339,-0.70899 1.527925,-1.044512 1.622515,-1.843652 z" />
    <path
       style="fill:#000000;stroke:#000000;stroke-width:2.1037"
       id="path5"
       d="m 161.98767,60.325969 c -5.89766,3.60973 -11.15685,8.35055 -15.84211,13.38568 -1.46113,1.57023 -2.80262,3.24495 -4.20393,4.86743 -2.87853,3.9549 -6.04985,8.00366 -7.4882,12.75701 -0.2935,0.96996 -0.95143,3.57757 0.3966,4.49601 1.88377,1.283482 4.1108,1.988762 6.16619,2.983142 1.00908,-0.2955 2.07224,-0.44969 3.02722,-0.88647 3.12747,-1.43044 5.27296,-3.414102 7.68213,-5.864182 4.43892,-4.51431 7.88771,-9.51113 11.3113,-14.77564 3.42514,-5.45982 6.27765,-11.2393 9.25453,-16.94244 0.13031,-0.25713 0.26156,-0.51384 0.3911,-0.77137 0.0794,-0.15797 0.15519,-0.31777 0.23588,-0.475126 0.0458,-0.0893 0.0728,-0.19316 0.1435,-0.26485 0.0258,-0.026 0.0438,0.12494 0.0109,0.10856 -5.17934,-2.57355 -4.04068,-4.15929 -5.27031,-1.78545 -3.06978,6.456656 -4.60389,13.513716 -6.14389,20.444816 -0.66467,3.8421 -1.17061,7.79018 -0.55103,11.67928 0.13295,0.83463 0.75787,3.66723 1.72545,4.32017 1.92494,1.299 4.1547,2.09114 6.23204,3.136722 2.48225,-1.743882 1.27053,-0.644 3.45823,-3.479922 0,0 -0.10409,-0.0668 -0.10409,-0.0668 v 0 c -4.87925,1.13775 -2.50449,0.97486 -7.10966,0.66418 0.79031,0.61509 1.37346,1.71254 2.37092,1.84528 0.69629,0.0926 -0.92104,-1.06767 -1.22506,-1.6928 -2.12014,-4.35946 -1.12886,-9.61984 -0.57582,-14.1698 1.50347,-6.85656 3.07533,-13.86147 6.64306,-20.01082 1.27788,-2.233166 0.71709,-0.721106 -4.11129,-3.790056 -0.043,-0.0272 -0.18695,0.53408 -0.35234,0.96715 -0.10301,0.26973 -0.2102,0.53788 -0.3153,0.80681 -2.40248,5.952986 -5.23368,11.757776 -8.4968,17.295746 -1.07391,1.6867 -2.07347,3.4218 -3.22172,5.0601 -3.76888,5.37732 -9.52129,12.6059 -15.87633,15.11302 -0.93536,0.36902 -1.96889,0.4214 -2.95335,0.632092 0.65768,0.60422 1.0877,1.66126 1.97303,1.81262 0.69484,0.11881 -1.04206,-1.02157 -1.24486,-1.68813 -0.2797,-0.919372 -0.31165,-1.930752 -0.14381,-2.876272 0.22846,-1.28669 0.77491,-2.5048 1.31121,-3.69906 1.84979,-4.1192 3.0109,-5.3736 5.67568,-9.20433 1.4059,-1.61015 2.75302,-3.27216 4.21771,-4.83041 4.68908,-4.98856 9.86126,-9.73032 15.69461,-13.38335 z" />
    <path
       style="fill:#000000;stroke:#000000;stroke-width:2.1037"
       id="path6"
       d="m 184.89546,59.180589 c -0.85175,9.16235 -2.24622,18.27935 -4.02902,27.31024 -0.24915,1.00155 -1.22996,5.3032 -1.83147,6.64183 -0.16824,0.37442 -1.10978,0.70957 -0.77977,0.95794 1.04665,0.78779 2.4822,1.66568 3.7347,1.26614 0.76496,-0.24402 -0.25998,-1.56931 -0.30014,-2.36174 -0.0594,-1.1725 0.001,-2.34793 0.002,-3.52189 0.3543,-5.31514 1.00228,-10.90202 4.49865,-15.20556 1.99949,-2.46109 2.95504,-2.82159 5.53039,-4.52554 3.06165,-1.94018 6.76463,-1.70948 10.10721,-2.70178 2.74439,-1.286 1.36904,-0.77841 4.11041,-1.56359 0,0 -0.10053,-0.0718 -0.10053,-0.0718 v 0 c -2.6571,-0.37816 -5.28984,-1.00421 -7.97111,-1.13572 -3.8272,-0.18767 -7.5063,0.80836 -10.8981,2.47933 -2.68003,1.86136 -3.54593,2.07778 -5.35115,4.9256 -2.94187,4.64092 -3.5124,10.41946 -4.06018,15.71327 -0.031,1.17571 -0.0976,2.35101 -0.0931,3.5271 0.003,0.83083 -0.43436,1.86134 0.1162,2.48989 1.21067,1.38216 2.91335,2.38585 4.66709,2.970952 0.65626,0.21894 1.73805,-8.071412 1.77613,-8.234732 1.08581,-8.75111 0.23991,-2.11493 1.5001,-11.47704 0.66421,-4.93458 1.46147,-9.90115 1.55469,-14.8896 0.009,-0.51347 -0.0568,-1.02558 -0.0853,-1.53836 z" />
    <path
       style="fill:#000000;stroke:#000000;stroke-width:2.1037"
       id="path7"
       d="m 209.35272,60.136799 c 0.58943,9.18124 -0.93322,18.31799 -2.92813,27.25032 -0.31016,0.97753 -0.5184,1.99244 -0.93047,2.93259 -0.71564,1.63276 -5.62763,4.04368 3.9715,3.08261 0.84205,-0.0844 0.10518,-1.67098 0.25297,-2.49344 0.70043,-3.89658 1.10419,-4.53006 2.45606,-8.40595 0.70203,-1.40602 1.24694,-2.89972 2.10608,-4.21804 2.3627,-3.62539 5.84269,-5.95444 9.32211,-8.38866 0.89645,-0.62715 1.71937,-1.36728 2.67843,-1.89663 0.88691,-0.48953 1.8811,-0.7594 2.82165,-1.1391 0,0 -0.10223,-0.0695 -0.10223,-0.0695 v 0 c -4.14713,0.61042 -8.97951,0.75207 -12.76274,2.63837 -4.4046,2.19611 -6.9647,6.13679 -8.81732,10.47584 -1.46088,3.87164 -1.8329,4.48976 -2.79164,8.34998 -0.2269,0.9136 -1.14549,2.04328 -0.54143,2.7709 1.33416,1.60713 3.43276,2.55948 5.45261,3.14505 1.51485,0.43919 -0.99053,-6.97708 1.16224,-4.5317 0.86033,-5.23574 1.44464,-10.49817 1.9093,-15.78406 0.25098,-2.85482 0.57642,-6.70012 0.34403,-9.64886 -0.0706,-0.89515 -0.33604,-1.76482 -0.50407,-2.64725 z" />
    <path
       style="fill:#000000;stroke:#000000;stroke-width:2.1037"
       id="path9"
       d="m 239.9413,67.037059 c -0.64993,4.00935 -0.66211,8.09438 0.21739,12.07881 0.29327,1.32864 0.75787,2.61474 1.13678,3.92211 2.89047,7.15957 5.1498,9.55303 12.85261,12.76923 0.75126,0.313682 1.66743,0.289802 2.44664,0.0516 0.83223,-0.254402 1.43721,-0.972332 2.15579,-1.458492 0.59363,-0.86276 1.27804,-1.67107 1.7809,-2.58829 2.79386,-5.09605 3.63031,-11.15039 4.7516,-16.7553 0.0613,-0.28423 0.64809,-3.17976 0.88733,-3.78301 0.0659,-0.16627 0.51413,-0.3169 0.35626,-0.40412 -1.59795,-0.88284 -3.21403,-1.95237 -5.03093,-2.17858 -0.56873,-0.0707 0.41213,1.0619 0.52181,1.61718 0.22233,1.12564 0.31393,2.27262 0.4709,3.40894 0.70621,10.55452 1.97123,21.67845 -2.0766,31.787983 -0.96027,2.39832 -2.39682,4.5831 -3.59525,6.87466 -1.14476,1.49113 -7.34335,9.8215 -9.12946,11.20601 -1.71027,1.3257 -3.89804,1.90426 -5.84706,2.8564 0,0 0.10348,0.0677 0.10348,0.0677 v 0 c 1.70739,-0.7217 12.72226,-5.3189 13.70081,-6.00509 2.16153,-1.51576 3.64404,-3.80256 5.46606,-5.70383 3.27769,-6.20841 4.45887,-7.37147 5.87588,-14.27719 0.47045,-2.292711 0.5837,-4.645981 0.7278,-6.980913 0.35633,-5.77388 -0.0386,-11.56777 -0.16216,-17.34037 -0.0659,-1.11891 -0.0988,-2.2402 -0.19772,-3.35676 -0.0528,-0.5958 0.20898,-1.39365 -0.2568,-1.77623 -6.95443,-5.71215 -5.91308,-3.53192 -6.85633,1.33519 -0.98581,5.54032 -1.75181,11.57298 -4.63386,16.54253 -0.48925,0.84362 -1.16542,1.56727 -1.74812,2.3509 -0.65351,0.3847 -1.21855,0.98757 -1.96053,1.1541 -0.73969,0.16603 -2.38518,-0.94482 -2.26617,-0.20544 0.15864,0.98567 2.31715,2.66966 2.50496,1.68899 0.20069,-1.04798 -1.71556,-1.32014 -2.42085,-2.1282 -1.91695,-2.19625 -2.5046,-3.96 -3.72697,-6.57543 -0.40548,-1.29561 -0.8924,-2.56909 -1.21642,-3.88686 -0.98643,-4.0119 -1.02445,-8.10524 -0.61294,-12.18672 z" />
  </g>
</svg>
